<?xml version="1.0" encoding="utf-8"?>
<!-- Generator: Adobe Illustrator 28.3.0, SVG Export Plug-In . SVG Version: 6.00 Build 0)  -->
<svg version="1.1" id="Calque_2_00000145781163305903166570000007492348414229127320_"
	 xmlns="http://www.w3.org/2000/svg" xmlns:xlink="http://www.w3.org/1999/xlink" x="0px" y="0px" viewBox="0 0 136.5 93.2"
	 style="enable-background:new 0 0 136.5 93.2;" xml:space="preserve">
<style type="text/css">
	.st0{fill:#FFFFFF;}
	.st1{fill:#F2DE29;}
	.st2{fill:none;stroke:#F2DE29;stroke-width:8.7356;stroke-miterlimit:10;}
</style>
<polygon class="st0" points="3,93.2 35.2,57.3 44.9,68.4 67.3,42.2 89,66.5 99.7,54.1 133.8,93.2 128.9,93.2 100.3,60.5 99.2,67.7 
	95.9,67.7 96.1,72 101.8,80.2 101.4,86.1 67.5,47.9 67,58.8 70.2,64.6 62.1,64.6 62.1,67.7 72.6,75.2 66,77.1 68.4,82.9 65.5,93.2 
	59.4,93.2 35.3,65.9 36.8,75.3 36.8,79.3 32,77.6 32,88.2 28.6,91.3 28.8,93.2 "/>
<polygon class="st0" points="5.7,259.1 37.9,223.2 47.6,234.3 70,208.1 91.7,232.4 102.4,220 136.5,259.1 131.6,259.1 103,226.4 
	101.9,233.6 98.6,233.6 98.8,237.9 104.5,246.1 104.1,252 70.2,213.8 69.7,224.7 72.9,230.5 64.8,230.5 64.8,233.6 75.3,241.1 
	68.7,243 71.1,248.8 68.2,259.1 62.1,259.1 38,231.8 39.5,241.2 39.5,245.2 34.7,243.5 34.7,254.1 31.3,257.2 31.5,259.1 "/>
<g>
	<polygon class="st1" points="3,0 3,85 35.2,49.1 44.9,60.2 67.3,34 89,58.3 99.7,45.9 133.8,85 133.8,0 	"/>
</g>
<path class="st1" d="M185.7,48.4l9.9,11.3l22.7-26.5l22,24.6l10.9-12.6l34.4,39.6c1.3-5.3,2-10.8,2-16.5C287.7,30.5,257.1,0,219.4,0
	s-68.2,30.5-68.2,68.2c0,5.7,0.7,11.2,2,16.5L185.7,48.4L185.7,48.4z"/>
<path class="st2" d="M-186.7,71.8c0-35,28.4-63.5,63.5-63.5s63.5,28.4,63.5,63.5"/>
<path class="st1" d="M68.2,201.2c-0.1,1.6-10.1,2.3-16.2,2.7c-0.6,7.2-1.7,16.6-3.2,16.6c-1.4,0-2.6-9.5-3.3-16.7
	c-6.9-0.4-15.9-1.3-15.9-2.7c-0.1-1.5,9.2-3,16.1-3.9c0.9-8.9,2-17,3.3-17c0.6,0,1.8,2,3,16.6C58.1,197.8,68.3,199.6,68.2,201.2z"/>
</svg>
